<svg width="32" height="32" viewBox="0 0 32 32" fill="none" xmlns="http://www.w3.org/2000/svg">
<circle cx="16" cy="16" r="15.5" fill="#D9D9D9" stroke="#262626"/>
<path d="M7.5 13L8.2858 15.4184H10.8287L8.77145 16.9131L9.55725 19.3316L7.5 17.8369L5.44275 19.3316L6.22855 16.9131L4.1713 15.4184H6.7142L7.5 13Z" fill="#262626"/>
<path d="M9.5 6L10.0613 7.72746H11.8776L10.4082 8.79508L10.9695 10.5225L9.5 9.45492L8.03054 10.5225L8.59182 8.79508L7.12236 7.72746H8.93871L9.5 6Z" fill="#262626"/>
<path d="M24.5 13L25.2858 15.4184H27.8287L25.7714 16.9131L26.5572 19.3316L24.5 17.8369L22.4428 19.3316L23.2286 16.9131L21.1713 15.4184H23.7142L24.5 13Z" fill="#262626"/>
<path d="M23.5 6L24.0613 7.72746H25.8776L24.4082 8.79508L24.9695 10.5225L23.5 9.45492L22.0305 10.5225L22.5918 8.79508L21.1224 7.72746H22.9387L23.5 6Z" fill="#262626"/>
<path d="M13.3205 0.5L15.5 0H16.5L18.5 0.5L21 1.5C21 1.5 21 2 20 3.5C19 5 18.6795 5.32777 18.6795 5.32777V17.7857C18.6795 17.7857 18.6795 21.3413 21.1154 24.3889C23.5513 27.4365 25.5 27.9444 25.5 27.9444C25.5 27.9444 21.1154 31.5 15.7564 31.5C10.3974 31.5 6.5 27.9444 6.5 27.9444C6.5 27.9444 8.9359 26.9286 10.8846 23.881C12.8333 20.8333 13.3205 17.7857 13.3205 17.7857V5.32777C13.3205 5.32777 12.5 4.5 12 3.5C11.5 2.5 11 1.5 11 1.5L13.3205 0.5Z" fill="#262626"/>
</svg>
